<?xml version="1.0" standalone="no"?>
<!DOCTYPE svg PUBLIC "-//W3C//DTD SVG 20010904//EN"
 "http://www.w3.org/TR/2001/REC-SVG-20010904/DTD/svg10.dtd">
<svg version="1.0" xmlns="http://www.w3.org/2000/svg"
 width="300.000000pt" height="300.000000pt" viewBox="0 0 300.000000 300.000000"
 preserveAspectRatio="xMidYMid meet">
<metadata>
Created by potrace 1.11, written by Peter Selinger 2001-2013
</metadata>
<g transform="translate(0.000000,300.000000) scale(0.100000,-0.100000)"
fill="#000000" stroke="none">
<path d="M645 2990 c-167 -25 -297 -92 -420 -215 -103 -102 -158 -194 -197
-331 l-23 -79 0 -865 0 -865 23 -79 c39 -136 94 -229 197 -332 76 -77 105 -98
185 -137 176 -87 112 -82 1090 -82 978 0 914 -5 1090 82 136 66 257 187 323
323 87 176 82 112 82 1090 0 978 5 914 -82 1090 -39 80 -60 109 -137 185 -101
101 -192 156 -326 197 l-75 22 -840 2 c-462 1 -863 -1 -890 -6z m935 -1320 l0
-780 203 0 204 0 7 -116 c3 -64 4 -120 1 -125 -4 -5 -236 -9 -566 -9 l-559 0
0 125 0 125 225 0 225 0 0 645 c0 417 -3 645 -10 645 -9 0 -210 -69 -348 -120
-30 -11 -58 -20 -63 -20 -6 0 -8 54 -7 132 l3 133 165 57 c91 32 181 64 200
72 25 11 77 15 178 15 l142 1 0 -780z m812 -757 c53 -31 72 -66 76 -142 6
-100 -27 -168 -124 -261 -41 -39 -79 -70 -84 -70 -6 0 -10 -4 -10 -10 0 -6 48
-10 125 -10 l125 0 0 -40 0 -40 -192 2 -193 3 -3 41 c-3 41 -3 42 67 88 152
101 224 225 195 334 -7 26 -51 52 -89 52 -30 0 -80 -24 -112 -53 l-23 -20 -25
23 c-14 13 -25 29 -25 35 0 25 67 71 125 86 45 12 132 3 167 -18z"/>
</g>
</svg>
